<svg width="24" height="24" viewBox="0 0 24 24" fill="none" xmlns="http://www.w3.org/2000/svg">
<path d="M20.6437 16.5861C20.3385 17.2848 19.9772 17.928 19.5586 18.5193C18.9881 19.3255 18.5209 19.8835 18.1609 20.1934C17.6027 20.702 17.0048 20.9625 16.3644 20.9773C15.9047 20.9773 15.3504 20.8477 14.705 20.5847C14.0576 20.323 13.4626 20.1934 12.9186 20.1934C12.348 20.1934 11.7361 20.323 11.0815 20.5847C10.426 20.8477 9.89793 20.9847 9.49417 20.9983C8.88012 21.0242 8.26806 20.7563 7.65713 20.1934C7.2672 19.8563 6.77947 19.2786 6.1952 18.4601C5.56832 17.586 5.05294 16.5725 4.64918 15.417C4.21677 14.1689 4 12.9603 4 11.7902C4 10.4498 4.29226 9.29383 4.87766 8.32509C5.33773 7.54696 5.94978 6.93316 6.71581 6.48255C7.48185 6.03195 8.30955 5.80233 9.20091 5.78763C9.68863 5.78763 10.3282 5.93714 11.123 6.23096C11.9156 6.52576 12.4245 6.67526 12.6476 6.67526C12.8144 6.67526 13.3798 6.50045 14.3382 6.15195C15.2445 5.82874 16.0094 5.69492 16.636 5.74764C18.334 5.88343 19.6097 6.54675 20.4581 7.74177C18.9395 8.6536 18.1883 9.93072 18.2032 11.5691C18.2169 12.8452 18.6841 13.9071 19.6022 14.7503C20.0183 15.1417 20.483 15.4441 21 15.6589C20.8879 15.9812 20.7695 16.2898 20.6437 16.5861ZM16.7494 1.40011C16.7494 2.40034 16.3806 3.33425 15.6456 4.19867C14.7586 5.22629 13.6857 5.8201 12.5223 5.7264C12.5075 5.60641 12.4989 5.48011 12.4989 5.3474C12.4989 4.38718 12.9207 3.35956 13.6698 2.51934C14.0438 2.09392 14.5194 1.74019 15.0962 1.45801C15.6718 1.18005 16.2162 1.02632 16.7282 1C16.7431 1.13371 16.7494 1.26744 16.7494 1.4001V1.40011Z" fill="black"/>
</svg>
